<?xml version="1.0" encoding="UTF-8" standalone="no"?>
<!DOCTYPE svg PUBLIC "-//W3C//DTD SVG 1.1//EN" "http://www.w3.org/Graphics/SVG/1.1/DTD/svg11.dtd">
<svg width="100%" height="100%" viewBox="0 0 713 160" version="1.1" xmlns="http://www.w3.org/2000/svg" xmlns:xlink="http://www.w3.org/1999/xlink" xml:space="preserve" xmlns:serif="http://www.serif.com/" style="fill-rule:evenodd;clip-rule:evenodd;stroke-linecap:round;stroke-linejoin:round;stroke-miterlimit:1.5;">
    <g id="Coderan" transform="matrix(1.22507,0,0,1.22507,-183.008,-304.272)">
        <g transform="matrix(134.398,0,0,134.398,266.351,376.222)">
            <path d="M0.317,-0.545C0.367,-0.545 0.414,-0.532 0.458,-0.507C0.502,-0.482 0.537,-0.448 0.562,-0.405C0.586,-0.362 0.599,-0.316 0.599,-0.266C0.599,-0.216 0.586,-0.169 0.561,-0.125C0.536,-0.082 0.502,-0.048 0.459,-0.023C0.417,0.001 0.369,0.014 0.317,0.014C0.241,0.014 0.176,-0.013 0.122,-0.068C0.068,-0.122 0.042,-0.188 0.042,-0.265C0.042,-0.348 0.072,-0.417 0.133,-0.473C0.186,-0.521 0.248,-0.545 0.317,-0.545ZM0.319,-0.419C0.278,-0.419 0.243,-0.405 0.216,-0.376C0.188,-0.347 0.174,-0.311 0.174,-0.266C0.174,-0.219 0.188,-0.182 0.215,-0.153C0.242,-0.125 0.277,-0.11 0.319,-0.11C0.36,-0.11 0.395,-0.125 0.423,-0.154C0.45,-0.183 0.464,-0.22 0.464,-0.266C0.464,-0.311 0.451,-0.348 0.424,-0.377C0.396,-0.405 0.361,-0.419 0.319,-0.419Z" style="fill:rgb(37,43,57);fill-rule:nonzero;"/>
        </g>
        <g transform="matrix(134.398,0,0,134.398,352.384,376.222)">
            <path d="M0.459,-0.736L0.593,-0.736L0.593,-0L0.459,-0L0.459,-0.056C0.433,-0.031 0.407,-0.014 0.381,-0.003C0.355,0.008 0.327,0.014 0.296,0.014C0.227,0.014 0.168,-0.013 0.118,-0.066C0.068,-0.119 0.043,-0.186 0.043,-0.265C0.043,-0.347 0.067,-0.414 0.116,-0.466C0.164,-0.519 0.223,-0.545 0.292,-0.545C0.324,-0.545 0.354,-0.539 0.382,-0.527C0.41,-0.515 0.436,-0.497 0.459,-0.473L0.459,-0.736ZM0.319,-0.422C0.278,-0.422 0.244,-0.407 0.217,-0.378C0.189,-0.349 0.176,-0.312 0.176,-0.266C0.176,-0.22 0.19,-0.182 0.217,-0.153C0.245,-0.123 0.279,-0.108 0.32,-0.108C0.362,-0.108 0.396,-0.123 0.424,-0.152C0.452,-0.181 0.465,-0.219 0.465,-0.267C0.465,-0.313 0.452,-0.35 0.424,-0.379C0.396,-0.408 0.362,-0.422 0.319,-0.422Z" style="fill:rgb(37,43,57);fill-rule:nonzero;"/>
        </g>
        <g transform="matrix(134.398,0,0,134.398,441.108,376.222)">
            <path d="M0.6,-0.227L0.171,-0.227C0.178,-0.189 0.194,-0.159 0.221,-0.137C0.248,-0.115 0.282,-0.104 0.324,-0.104C0.374,-0.104 0.416,-0.121 0.452,-0.156L0.564,-0.103C0.536,-0.063 0.503,-0.034 0.464,-0.015C0.425,0.004 0.378,0.014 0.325,0.014C0.241,0.014 0.174,-0.013 0.121,-0.065C0.069,-0.118 0.042,-0.184 0.042,-0.263C0.042,-0.344 0.069,-0.411 0.121,-0.465C0.173,-0.518 0.239,-0.545 0.317,-0.545C0.401,-0.545 0.469,-0.518 0.521,-0.465C0.574,-0.411 0.6,-0.34 0.6,-0.252L0.6,-0.227ZM0.466,-0.332C0.458,-0.362 0.44,-0.386 0.414,-0.404C0.388,-0.423 0.358,-0.432 0.324,-0.432C0.287,-0.432 0.254,-0.422 0.226,-0.401C0.209,-0.388 0.192,-0.365 0.177,-0.332L0.466,-0.332Z" style="fill:rgb(37,43,57);fill-rule:nonzero;"/>
        </g>
        <g transform="matrix(0.816282,0,0,0.816282,14.9692,68.0394)">
            <path d="M583.105,359.56C588.084,358.291 592.547,355.737 596.493,351.898L614.984,360.581C610.375,367.12 604.854,371.957 598.423,375.092C595.631,376.453 592.612,377.519 589.365,378.289L583.105,359.56ZM559.829,289.928C564.307,288.526 569.132,287.824 574.305,287.824C588.079,287.824 599.28,292.233 607.909,301.049C616.538,309.866 620.853,321.509 620.853,335.98L620.772,340.161L576.62,340.161L570.843,322.876L598.825,322.876C597.375,317.999 594.516,314.033 590.248,310.978C585.98,307.923 581.028,306.395 575.39,306.395C571.982,306.395 568.808,306.927 565.867,307.991L559.829,289.928Z" style="fill:rgb(80,79,84);fill-rule:nonzero;"/>
        </g>
        <g transform="matrix(134.398,0,0,134.398,527.141,376.222)">
            <path d="M0.036,-0.531L0.15,-0.531L0.15,-0.464C0.163,-0.491 0.179,-0.511 0.2,-0.524C0.22,-0.538 0.243,-0.545 0.267,-0.545C0.284,-0.545 0.302,-0.54 0.321,-0.531L0.28,-0.417C0.264,-0.424 0.251,-0.428 0.241,-0.428C0.221,-0.428 0.203,-0.416 0.189,-0.39C0.175,-0.365 0.168,-0.315 0.168,-0.241L0.168,-0.215L0.168,-0L0.036,-0L0.036,-0.531Z" style="fill:rgb(80,79,84);fill-rule:nonzero;"/>
        </g>
        <g transform="matrix(134.398,0,0,134.398,570.125,376.222)">
            <path d="M0.459,-0.531L0.593,-0.531L0.593,-0L0.459,-0L0.459,-0.056C0.433,-0.031 0.407,-0.014 0.381,-0.003C0.355,0.008 0.327,0.014 0.296,0.014C0.227,0.014 0.168,-0.013 0.118,-0.066C0.068,-0.119 0.043,-0.186 0.043,-0.265C0.043,-0.347 0.067,-0.414 0.116,-0.466C0.164,-0.519 0.223,-0.545 0.292,-0.545C0.324,-0.545 0.354,-0.539 0.382,-0.527C0.41,-0.515 0.436,-0.497 0.459,-0.473L0.459,-0.531ZM0.319,-0.422C0.278,-0.422 0.244,-0.407 0.217,-0.378C0.189,-0.349 0.176,-0.312 0.176,-0.266C0.176,-0.22 0.19,-0.182 0.217,-0.153C0.245,-0.123 0.279,-0.108 0.32,-0.108C0.362,-0.108 0.396,-0.123 0.424,-0.152C0.452,-0.181 0.465,-0.219 0.465,-0.267C0.465,-0.313 0.452,-0.35 0.424,-0.379C0.396,-0.408 0.362,-0.422 0.319,-0.422Z" style="fill:rgb(80,79,84);fill-rule:nonzero;"/>
        </g>
        <g transform="matrix(134.398,0,0,134.398,658.849,376.222)">
            <path d="M0.067,-0.531L0.201,-0.531L0.201,-0.477C0.231,-0.502 0.258,-0.52 0.283,-0.53C0.307,-0.54 0.332,-0.545 0.358,-0.545C0.411,-0.545 0.456,-0.527 0.492,-0.49C0.523,-0.458 0.539,-0.412 0.539,-0.351L0.539,-0L0.407,-0L0.407,-0.233C0.407,-0.296 0.404,-0.338 0.398,-0.359C0.393,-0.38 0.383,-0.396 0.368,-0.407C0.354,-0.417 0.337,-0.423 0.316,-0.423C0.289,-0.423 0.266,-0.414 0.247,-0.396C0.227,-0.378 0.214,-0.353 0.207,-0.321C0.203,-0.304 0.201,-0.268 0.201,-0.213L0.201,-0L0.067,-0L0.067,-0.531Z" style="fill:rgb(80,79,84);fill-rule:nonzero;"/>
        </g>
    </g>
    <g id="Coderan-in-C---Code-Rood-1" serif:id="Coderan in C - Code Rood 1" transform="matrix(0.176222,0,0,0.682896,-3.78855,-104.49)">
        <path d="M460,212.5C460,211.12 455.659,210 450.312,210L319.688,210C314.341,210 310,211.12 310,212.5L310,217.5C310,218.88 314.341,220 319.688,220L450.312,220C455.659,220 460,218.88 460,217.5L460,212.5Z" style="fill:rgb(255,9,0);"/>
    </g>
    <g transform="matrix(0.909632,0,0,0.909632,-152.218,-193.094)">
        <path d="M314.392,298.775C314.4,299.182 314.405,299.59 314.405,300C314.405,302.12 314.293,304.214 314.076,306.282L296.958,306.282C295.922,306.282 295.081,305.441 295.081,304.405L295.081,300.651C295.081,299.616 295.922,298.775 296.958,298.775L314.392,298.775Z" style="fill:rgb(255,9,0);"/>
    </g>
    <g id="Coderan-in-C---Code-Grijs-1" serif:id="Coderan in C - Code Grijs 1" transform="matrix(0.45516,0,0,0.682896,-97.2743,-64.7277)">
        <path d="M460,212.5C460,211.12 458.319,210 456.249,210L313.751,210C311.681,210 310,211.12 310,212.5L310,217.5C310,218.88 311.681,220 313.751,220L456.249,220C458.319,220 460,218.88 460,217.5L460,212.5Z" style="fill:rgb(80,79,84);"/>
    </g>
    <g transform="matrix(0.909632,0,0,0.909632,-143.2,-192.689)">
        <path d="M295.221,268.841C296.72,271.233 298.052,273.741 299.2,276.349L274.601,276.349C273.565,276.349 272.724,275.508 272.724,274.472L272.724,270.718C272.724,269.682 273.565,268.841 274.601,268.841L295.221,268.841Z" style="fill:rgb(1,0,208);stroke:rgb(1,0,208);stroke-width:1.1px;"/>
    </g>
    <g id="Coderan-in-C---Code-Blauw-1" serif:id="Coderan in C - Code Blauw 1" transform="matrix(0.370216,0,0,0.682896,-70.9415,-51.4002)">
        <path d="M460,212.5C460,211.12 457.934,210 455.389,210L314.611,210C312.066,210 310,211.12 310,212.5L310,217.5C310,218.88 312.066,220 314.611,220L455.389,220C457.934,220 460,218.88 460,217.5L460,212.5Z" style="fill:rgb(1,0,208);"/>
    </g>
    <g id="Coderan-in-C---Code-Groen-3" serif:id="Coderan in C - Code Groen 3" transform="matrix(0.369733,0,0,0.682896,-70.7917,-91.2725)">
        <path d="M460,212.5C460,211.12 457.931,210 455.383,210L314.617,210C312.069,210 310,211.12 310,212.5L310,217.5C310,218.88 312.069,220 314.617,220L455.383,220C457.931,220 460,218.88 460,217.5L460,212.5Z" style="fill:rgb(12,195,5);"/>
    </g>
    <g id="Coderan-in-C---Code-Groen-1" serif:id="Coderan in C - Code Groen 1" transform="matrix(0.252434,0,0,0.682896,-27.8039,-38.1829)">
        <path d="M460,212.5C460,211.12 456.97,210 453.237,210L316.763,210C313.03,210 310,211.12 310,212.5L310,217.5C310,218.88 313.03,220 316.763,220L453.237,220C456.97,220 460,218.88 460,217.5L460,212.5Z" style="fill:rgb(12,195,5);"/>
    </g>
    <g id="Coderan-in-C---Code-Oranje-2" serif:id="Coderan in C - Code Oranje 2" transform="matrix(0.425426,0,0,0.682896,-88.0567,-117.487)">
        <path d="M460,212.5C460,211.12 458.202,210 455.987,210L314.013,210C311.798,210 310,211.12 310,212.5L310,217.5C310,218.88 311.798,220 314.013,220L455.987,220C458.202,220 460,218.88 460,217.5L460,212.5Z" style="fill:rgb(255,174,0);stroke:rgb(255,174,0);stroke-width:1.76px;stroke-linecap:butt;"/>
    </g>
    <g transform="matrix(0.909632,0,0,0.909632,-143.2,-192.689)">
        <path d="M297.457,327.269C296.079,329.894 294.508,332.402 292.762,334.776L262.462,334.776C261.426,334.776 260.585,333.935 260.585,332.9L260.585,329.146C260.585,328.11 261.426,327.269 262.462,327.269L297.457,327.269Z" style="fill:rgb(255,174,0);stroke:rgb(255,174,0);stroke-width:1.1px;"/>
    </g>
    <g transform="matrix(0.909632,0,0,0.909632,-143.2,-192.689)">
        <path d="M282.728,254.617C285.48,256.885 288.021,259.398 290.32,262.124L250.323,262.124C249.287,262.124 248.446,261.283 248.446,260.248L248.446,256.494C248.446,255.458 249.287,254.617 250.323,254.617L282.728,254.617Z" style="fill:rgb(158,23,138);stroke:rgb(158,23,138);stroke-width:1.1px;"/>
    </g>
    <g id="Coderan-in-C---Code-Paars-1" serif:id="Coderan in C - Code Paars 1" transform="matrix(0.48585,0,0,0.682896,-106.788,-24.9655)">
        <path d="M460,212.5C460,211.12 458.425,210 456.486,210L313.514,210C311.575,210 310,211.12 310,212.5L310,217.5C310,218.88 311.575,220 313.514,220L456.486,220C458.425,220 460,218.88 460,217.5L460,212.5Z" style="fill:rgb(158,23,138);"/>
    </g>
    <g id="Coderan-in-C---2" serif:id="Coderan in C - 2" transform="matrix(0.0441682,0,0,0.682896,16.8828,-104.49)">
        <path d="M460,212.425C460,211.087 443.197,210 422.5,210L347.5,210C326.803,210 310,211.087 310,212.425L310,217.575C310,218.913 326.803,220 347.5,220L422.5,220C443.197,220 460,218.913 460,217.575L460,212.425Z" style="fill:rgb(47,54,72);"/>
    </g>
    <g id="Coderan-in-C---3" serif:id="Coderan in C - 3" transform="matrix(0.0441682,0,0,0.682896,16.8828,-91.2725)">
        <path d="M460,212.425C460,211.087 443.197,210 422.5,210L347.5,210C326.803,210 310,211.087 310,212.425L310,217.575C310,218.913 326.803,220 347.5,220L422.5,220C443.197,220 460,218.913 460,217.575L460,212.425Z" style="fill:rgb(47,54,72);"/>
    </g>
    <g id="Coderan-in-C---4" serif:id="Coderan in C - 4" transform="matrix(0.0441682,0,0,0.682896,16.8828,-78.0552)">
        <path d="M460,212.425C460,211.087 443.197,210 422.5,210L347.5,210C326.803,210 310,211.087 310,212.425L310,217.575C310,218.913 326.803,220 347.5,220L422.5,220C443.197,220 460,218.913 460,217.575L460,212.425Z" style="fill:rgb(47,54,72);"/>
    </g>
    <g id="Coderan-in-C---5" serif:id="Coderan in C - 5" transform="matrix(0.0441682,0,0,0.682896,16.8828,-64.8378)">
        <path d="M460,212.425C460,211.087 443.197,210 422.5,210L347.5,210C326.803,210 310,211.087 310,212.425L310,217.575C310,218.913 326.803,220 347.5,220L422.5,220C443.197,220 460,218.913 460,217.575L460,212.425Z" style="fill:rgb(47,54,72);"/>
    </g>
    <g id="Coderan-in-C---6" serif:id="Coderan in C - 6" transform="matrix(0.0441682,0,0,0.682896,16.8828,-51.6205)">
        <path d="M460,212.425C460,211.087 443.197,210 422.5,210L347.5,210C326.803,210 310,211.087 310,212.425L310,217.575C310,218.913 326.803,220 347.5,220L422.5,220C443.197,220 460,218.913 460,217.575L460,212.425Z" style="fill:rgb(47,54,72);"/>
    </g>
    <g id="Coderan-in-C---7" serif:id="Coderan in C - 7" transform="matrix(0.0441682,0,0,0.682896,16.8828,-38.4032)">
        <path d="M460,212.425C460,211.087 443.197,210 422.5,210L347.5,210C326.803,210 310,211.087 310,212.425L310,217.575C310,218.913 326.803,220 347.5,220L422.5,220C443.197,220 460,218.913 460,217.575L460,212.425Z" style="fill:rgb(47,54,72);"/>
    </g>
    <g id="Coderan-in-C---8" serif:id="Coderan in C - 8" transform="matrix(0.0441682,0,0,0.682896,16.8828,-24.9655)">
        <path d="M460,212.425C460,211.087 443.197,210 422.5,210L347.5,210C326.803,210 310,211.087 310,212.425L310,217.575C310,218.913 326.803,220 347.5,220L422.5,220C443.197,220 460,218.913 460,217.575L460,212.425Z" style="fill:rgb(47,54,72);"/>
    </g>
    <g id="Coderan-in-C---1" serif:id="Coderan in C - 1" transform="matrix(0.276051,0,0,0.275361,-0.470089,13.3066)">
        <path d="M135.872,48.512C136.262,49.266 136.461,50.123 136.461,51.026L136.461,63.796C136.461,67.116 133.773,69.811 130.461,69.811L118.461,69.811C115.675,69.811 113.329,67.903 112.763,65.292L113.694,64.517C117.406,61.708 121.119,58.898 124.831,56.089L135.872,48.512Z" style="fill:rgb(47,54,72);fill-opacity:0.1;"/>
    </g>
    <g transform="matrix(0.40134,0,0,0.40134,-80.7674,-40.607)">
        <path d="M540.56,440.56C504.572,476.549 454.866,498.822 400,498.822C290.267,498.822 201.178,409.733 201.178,300C201.178,190.267 290.267,101.178 400,101.178C454.866,101.178 504.572,123.451 540.56,159.44L494.393,205.607C470.225,181.439 436.845,166.482 400,166.482C326.309,166.482 266.482,226.309 266.482,300C266.482,373.691 326.309,433.518 400,433.518C436.845,433.518 470.225,418.561 494.393,394.393L540.56,440.56Z" style="fill:rgb(37,43,57);stroke:rgb(37,43,57);stroke-width:2.49px;"/>
    </g>
</svg>
